<?xml version="1.0" encoding="UTF-8"?>
<svg width="167px" height="162px" viewBox="0 0 167 162" version="1.1" xmlns="http://www.w3.org/2000/svg" xmlns:xlink="http://www.w3.org/1999/xlink">
    <title>LOGO备份 3</title>
    <defs>
        <linearGradient x1="35.0591404%" y1="4.39338467%" x2="73.0947901%" y2="95.6066153%" id="linearGradient-1">
            <stop stop-color="#FF0074" offset="0%"></stop>
            <stop stop-color="#FF7900" offset="100%"></stop>
        </linearGradient>
        <path d="M161.648537,22.4116392 C167.868992,22.4116392 172.911667,27.4704477 172.911667,33.7108042 C172.911667,35.4153883 172.52723,37.0978819 171.787147,38.632279 L168.549258,45.3453265 C166.308364,49.9913243 162.109003,53.2831689 157.226859,54.4183921 L109.415771,54.4158475 C105.098414,54.4158475 100.946964,56.0842065 97.8236421,59.0744199 C96.3812944,60.4552985 95.2375726,62.0321597 94.3943689,63.723785 L94.1244339,64.2917993 C93.0318058,66.5265448 92.4184909,69.0400391 92.4184909,71.6972391 C92.4184909,76.028409 94.0815291,80.1931414 97.0622062,83.3264554 L117.785169,105.110616 C122.657908,110.232883 123.678082,117.633092 120.92962,123.708201 C118.271714,129.147428 112.776887,132.937778 106.380076,133.138689 L105.844962,133.147081 L61.6190108,133.147081 C60.3245484,133.147081 59.0530045,133.296378 57.8246975,133.582991 L105.638283,133.584152 C109.95564,133.584152 114.107091,131.915794 117.230412,128.92558 C118.67276,127.544702 119.816481,125.96784 120.659685,124.276215 L120.92962,123.708201 C122.022248,121.473455 122.635563,118.959961 122.635563,116.302761 C122.635563,111.971591 120.972525,107.806859 117.991848,104.673545 L97.2688854,82.889384 C92.3961459,77.7671173 91.3759724,70.3669082 94.1244339,64.2917993 C96.7823405,58.8525723 102.277168,55.0622217 108.673978,54.861311 L109.209092,54.8529189 L153.435043,54.8529189 C154.728628,54.8529189 155.999326,54.7038248 157.226859,54.4183921 L165.693651,54.4158475 C174.966844,54.4158475 182.484252,61.9573066 182.484252,71.2601677 C182.484252,73.6647091 181.971084,76.0413831 180.979251,78.230397 L145.871631,155.71427 C143.147018,161.727596 137.170356,165.588361 130.586031,165.588361 L53.4055174,165.588361 C47.1850623,165.588361 42.1423872,160.529552 42.1423872,154.289196 C42.1423872,152.584612 42.5268242,150.902118 43.2669066,149.367721 L46.5047961,142.654674 C48.7439329,138.012319 52.9384659,134.721995 57.815711,133.584283 L49.360403,133.584152 C40.0872102,133.584152 32.5698021,126.042693 32.5698021,116.739832 C32.5698021,114.335291 33.0829698,111.958617 34.0748028,109.769603 L69.1824228,32.2857301 C71.9070358,26.272404 77.8836982,22.4116392 84.4680229,22.4116392 L161.648537,22.4116392 Z" id="path-2"></path>
    </defs>
    <g id="页面-1" stroke="none" stroke-width="1" fill="none" fill-rule="evenodd">
        <g id="画板" transform="translate(-230.000000, -152.000000)">
            <g id="LOGO备份-3" transform="translate(206.000000, 139.000000)">
                <mask id="mask-3" fill="white">
                    <use xlink:href="#path-2"></use>
                </mask>
                <use id="形状" stroke="url(#linearGradient-1)" stroke-width="16.8443202" stroke-linejoin="round" xlink:href="#path-2"></use>
            </g>
        </g>
    </g>
</svg>